<mxfile host="app.diagrams.net" modified="2024-04-21T19:38:30.903Z" agent="Mozilla/5.0 (Windows NT 10.0; Win64; x64) AppleWebKit/537.36 (KHTML, like Gecko) Chrome/123.0.0.0 Safari/537.36" etag="DD6j_hamJD4GQ5bgDatq" version="24.2.2" type="device">
  <diagram name="Página-1" id="59BLNiTKBxW11cA6_MUx">
    <mxGraphModel dx="1434" dy="780" grid="1" gridSize="10" guides="1" tooltips="1" connect="1" arrows="1" fold="1" page="1" pageScale="1" pageWidth="827" pageHeight="1169" math="0" shadow="0">
      <root>
        <mxCell id="0" />
        <mxCell id="1" parent="0" />
        <mxCell id="4OXoJlYb9ETRblbYbKrB-1" value="Integración con sistemas centrales" style="shape=process;whiteSpace=wrap;html=1;backgroundOutline=1;fillColor=#E6E6E6;" parent="1" vertex="1">
          <mxGeometry x="40" y="400" width="120" height="60" as="geometry" />
        </mxCell>
        <mxCell id="4OXoJlYb9ETRblbYbKrB-2" value="" style="endArrow=none;html=1;rounded=0;fillColor=#E6E6E6;" parent="1" edge="1">
          <mxGeometry width="50" height="50" relative="1" as="geometry">
            <mxPoint x="160" y="430" as="sourcePoint" />
            <mxPoint x="200" y="430" as="targetPoint" />
          </mxGeometry>
        </mxCell>
        <mxCell id="4OXoJlYb9ETRblbYbKrB-3" value="Manejo&lt;div&gt;de las&lt;/div&gt;&lt;div&gt;APIs&lt;/div&gt;" style="rounded=1;whiteSpace=wrap;html=1;fillColor=#E6E6E6;" parent="1" vertex="1">
          <mxGeometry x="200" y="400" width="120" height="60" as="geometry" />
        </mxCell>
        <mxCell id="4OXoJlYb9ETRblbYbKrB-4" value="Seguridad&lt;div&gt;y&lt;/div&gt;&lt;div&gt;Autenticación&lt;/div&gt;" style="rounded=1;whiteSpace=wrap;html=1;fillColor=#E6E6E6;" parent="1" vertex="1">
          <mxGeometry x="200" y="300" width="120" height="60" as="geometry" />
        </mxCell>
        <mxCell id="4OXoJlYb9ETRblbYbKrB-6" value="Integración&lt;div&gt;del HIS&lt;/div&gt;" style="rounded=1;whiteSpace=wrap;html=1;fillColor=#E6E6E6;" parent="1" vertex="1">
          <mxGeometry x="200" y="500" width="120" height="60" as="geometry" />
        </mxCell>
        <mxCell id="4OXoJlYb9ETRblbYbKrB-8" value="Conectividad&lt;div&gt;Bidireccional&lt;/div&gt;" style="rounded=1;whiteSpace=wrap;html=1;fillColor=#E6E6E6;" parent="1" vertex="1">
          <mxGeometry x="200" y="200" width="120" height="60" as="geometry" />
        </mxCell>
        <mxCell id="4OXoJlYb9ETRblbYbKrB-9" value="Sincronización&lt;div&gt;de los&lt;/div&gt;&lt;div&gt;Datos&lt;/div&gt;" style="rounded=1;whiteSpace=wrap;html=1;fillColor=#E6E6E6;" parent="1" vertex="1">
          <mxGeometry x="200" y="600" width="120" height="60" as="geometry" />
        </mxCell>
        <mxCell id="4OXoJlYb9ETRblbYbKrB-10" value="" style="endArrow=none;html=1;rounded=0;fillColor=#E6E6E6;" parent="1" edge="1">
          <mxGeometry width="50" height="50" relative="1" as="geometry">
            <mxPoint x="180" y="630" as="sourcePoint" />
            <mxPoint x="180" y="430" as="targetPoint" />
          </mxGeometry>
        </mxCell>
        <mxCell id="4OXoJlYb9ETRblbYbKrB-11" value="" style="endArrow=none;html=1;rounded=0;entryX=0;entryY=0.5;entryDx=0;entryDy=0;fillColor=#E6E6E6;" parent="1" target="4OXoJlYb9ETRblbYbKrB-9" edge="1">
          <mxGeometry width="50" height="50" relative="1" as="geometry">
            <mxPoint x="180" y="630" as="sourcePoint" />
            <mxPoint x="230" y="580" as="targetPoint" />
          </mxGeometry>
        </mxCell>
        <mxCell id="4OXoJlYb9ETRblbYbKrB-12" value="" style="endArrow=none;html=1;rounded=0;fillColor=#E6E6E6;" parent="1" edge="1">
          <mxGeometry width="50" height="50" relative="1" as="geometry">
            <mxPoint x="180" y="430" as="sourcePoint" />
            <mxPoint x="180" y="230" as="targetPoint" />
          </mxGeometry>
        </mxCell>
        <mxCell id="4OXoJlYb9ETRblbYbKrB-13" value="" style="endArrow=none;html=1;rounded=0;entryX=0;entryY=0.5;entryDx=0;entryDy=0;fillColor=#E6E6E6;" parent="1" target="4OXoJlYb9ETRblbYbKrB-8" edge="1">
          <mxGeometry width="50" height="50" relative="1" as="geometry">
            <mxPoint x="180" y="230" as="sourcePoint" />
            <mxPoint x="230" y="180" as="targetPoint" />
          </mxGeometry>
        </mxCell>
        <mxCell id="4OXoJlYb9ETRblbYbKrB-14" value="" style="endArrow=none;html=1;rounded=0;fillColor=#E6E6E6;" parent="1" edge="1">
          <mxGeometry width="50" height="50" relative="1" as="geometry">
            <mxPoint x="180" y="530" as="sourcePoint" />
            <mxPoint x="200" y="530" as="targetPoint" />
          </mxGeometry>
        </mxCell>
        <mxCell id="4OXoJlYb9ETRblbYbKrB-15" value="" style="endArrow=none;html=1;rounded=0;entryX=0;entryY=0.5;entryDx=0;entryDy=0;fillColor=#E6E6E6;" parent="1" target="4OXoJlYb9ETRblbYbKrB-4" edge="1">
          <mxGeometry width="50" height="50" relative="1" as="geometry">
            <mxPoint x="180" y="330" as="sourcePoint" />
            <mxPoint x="230" y="280" as="targetPoint" />
          </mxGeometry>
        </mxCell>
      </root>
    </mxGraphModel>
  </diagram>
</mxfile>
